<svg aria-hidden="true" style="position: absolute; width: 0; height: 0; overflow: hidden;" version="1.1" xmlns="http://www.w3.org/2000/svg" xmlns:xlink="http://www.w3.org/1999/xlink">
<defs>
<symbol id="icon--" viewBox="0 0 50 32">
<path  opacity="0.2" d="M0 0h50v32h-50z"></path>
<path  d="M16.75 7.031c0-0.069 0.056-0.125 0.125-0.125v0h16.25c0.069 0 0.125 0.056 0.125 0.125v0 17.906c0 0.069-0.056 0.125-0.125 0.125v0h-16.25c-0.069 0-0.125-0.056-0.125-0.125v0-17.906z"></path>
<path  d="M33 7.625c0 0.259-0.21 0.469-0.469 0.469s-0.469-0.21-0.469-0.469c0-0.259 0.21-0.469 0.469-0.469s0.469 0.21 0.469 0.469z"></path>
<path  d="M32.719 7.472l-0.035-0.035-0.137 0.137-0.137-0.137-0.035 0.035 0.137 0.137-0.137 0.137 0.035 0.035 0.137-0.137 0.137 0.137 0.035-0.035-0.137-0.137 0.137-0.137z"></path>
</symbol>
</defs>
</svg>
