<svg aria-hidden="true" style="position: absolute; width: 0; height: 0; overflow: hidden;" version="1.1" xmlns="http://www.w3.org/2000/svg" xmlns:xlink="http://www.w3.org/1999/xlink">
<defs>
<symbol id="icon-person" viewBox="0 0 32 32">
<path d="M16 16c4.418 0 8-3.582 8-8s-3.582-8-8-8v0c-4.418 0-8 3.582-8 8s3.582 8 8 8v0zM16 20c-5.339 0-16 2.68-16 8v2c0 1.099 0.901 2 2 2h28c1.099 0 2-0.901 2-2v-2c0-5.32-10.661-8-16-8z"></path>
</symbol>
<symbol id="icon-email-black" viewBox="0 0 32 32">
<path d="M26.667 5.333h-21.333c-1.467 0-2.653 1.2-2.653 2.667l-0.013 16c0 1.467 1.2 2.667 2.667 2.667h21.333c1.467 0 2.667-1.2 2.667-2.667v-16c0-1.467-1.2-2.667-2.667-2.667zM26.133 11l-9.427 5.893c-0.427 0.267-0.987 0.267-1.413 0l-9.427-5.893c-0.333-0.213-0.533-0.573-0.533-0.96 0-0.893 0.973-1.427 1.733-0.96l8.933 5.587 8.933-5.587c0.76-0.467 1.733 0.067 1.733 0.96 0 0.387-0.2 0.747-0.533 0.96z"></path>
</symbol>
<symbol id="icon-phone-black" viewBox="0 0 32 32">
<path d="M24.882 19.774l-3.268-0.373c-0.090-0.011-0.194-0.018-0.299-0.018-0.707 0-1.348 0.287-1.811 0.75l-2.368 2.368c-3.669-1.894-6.585-4.81-8.427-8.372l-0.051-0.108 2.382-2.377c0.463-0.463 0.75-1.103 0.75-1.81 0-0.106-0.006-0.21-0.019-0.312l0.001 0.012-0.373-3.243c-0.155-1.287-1.24-2.276-2.557-2.276-0.001 0-0.002 0-0.003 0h-2.226c-1.454 0-2.663 1.209-2.574 2.663 0.683 10.987 9.47 19.76 20.444 20.443 1.452 0.089 2.663-1.12 2.663-2.574v-2.226c0-0.004 0-0.008 0-0.012 0-1.308-0.985-2.386-2.253-2.532l-0.012-0.001z"></path>
</symbol>
</defs>
</svg>
