<svg width="1600" height="1024" fill="none" xmlns="http://www.w3.org/2000/svg"><path fill="#000" fill-opacity=".2" d="M0 0h1600v1024H0z"/><g filter="url(#a)"><path d="M536 225a4 4 0 0 1 4-4h520a4 4 0 0 1 4 4v573a4 4 0 0 1-4 4H540a4 4 0 0 1-4-4V225Z" fill="#fff"/></g><circle cx="1041" cy="244" r="15" fill="#fff"/><circle cx="1041" cy="244" r="14.5" stroke="#000" stroke-opacity=".1"/><path d="m1047 239.108-1.11-1.108-4.39 4.392-4.39-4.392-1.11 1.108 4.39 4.392-4.39 4.392 1.11 1.108 4.39-4.392 4.39 4.392 1.11-1.108-4.39-4.392 4.39-4.392Z" fill="#000"/><defs><filter id="a" x="533" y="219" width="534" height="587" filterUnits="userSpaceOnUse" color-interpolation-filters="sRGB"><feFlood flood-opacity="0" result="BackgroundImageFix"/><feColorMatrix in="SourceAlpha" values="0 0 0 0 0 0 0 0 0 0 0 0 0 0 0 0 0 0 127 0" result="hardAlpha"/><feOffset dy="2"/><feGaussianBlur stdDeviation=".5"/><feColorMatrix values="0 0 0 0 0 0 0 0 0 0 0 0 0 0 0 0 0 0 0.2 0"/><feBlend in2="BackgroundImageFix" result="effect1_dropShadow_1_1664"/><feColorMatrix in="SourceAlpha" values="0 0 0 0 0 0 0 0 0 0 0 0 0 0 0 0 0 0 127 0" result="hardAlpha"/><feOffset dy="1"/><feGaussianBlur stdDeviation=".5"/><feColorMatrix values="0 0 0 0 0 0 0 0 0 0 0 0 0 0 0 0 0 0 0.14 0"/><feBlend in2="effect1_dropShadow_1_1664" result="effect2_dropShadow_1_1664"/><feColorMatrix in="SourceAlpha" values="0 0 0 0 0 0 0 0 0 0 0 0 0 0 0 0 0 0 127 0" result="hardAlpha"/><feOffset dy="1"/><feGaussianBlur stdDeviation="1.5"/><feColorMatrix values="0 0 0 0 0 0 0 0 0 0 0 0 0 0 0 0 0 0 0.12 0"/><feBlend in2="effect2_dropShadow_1_1664" result="effect3_dropShadow_1_1664"/><feBlend in="SourceGraphic" in2="effect3_dropShadow_1_1664" result="shape"/></filter></defs></svg>